<svg xmlns="http://www.w3.org/2000/svg" viewBox="0 0 128 128">
  <path d="M64 0C28.7 0 0 28.7 0 64s28.7 64 64 64c11.2 0 21.7-2.9 30.8-7.9L48.4 55.3v36.6H36.1V44.5h13.3l37.3 58.7c9.4-7.1 16-17.4 18.7-29.2H64V62.7h47.1c.2 1.8.3 3.6.3 5.4C111.4 96.1 90.7 128 64 128 28.7 128 0 99.3 0 64S28.7 0 64 0z"/>
  <path fill="#fff" d="M64 0C28.7 0 0 28.7 0 64s28.7 64 64 64c11.2 0 21.7-2.9 30.8-7.9L48.4 55.3v36.6H36.1V44.5h13.3l37.3 58.7c9.4-7.1 16-17.4 18.7-29.2H64V62.7h47.1c.2 1.8.3 3.6.3 5.4C111.4 96.1 90.7 128 64 128 28.7 128 0 99.3 0 64S28.7 0 64 0z" opacity="0"/>
  <circle cx="64" cy="64" r="64" fill="#000"/>
  <path fill="#fff" d="M107 108.9L55.3 38H38v52h13.3V56.8l43.7 61.5c4-2.9 7.7-6.1 11-9.6zM81.3 38H94v52H81.3z"/>
</svg>
